<?xml version="1.0" standalone="no"?>
<!DOCTYPE svg PUBLIC "-//W3C//DTD SVG 20010904//EN"
 "http://www.w3.org/TR/2001/REC-SVG-20010904/DTD/svg10.dtd">
<svg version="1.0" xmlns="http://www.w3.org/2000/svg"
 width="900.000000pt" height="900.000000pt" viewBox="0 0 900.000000 900.000000"
 preserveAspectRatio="xMidYMid meet">
<metadata>
Created by potrace 1.11, written by Peter Selinger 2001-2013
</metadata>
<g transform="translate(0.000000,900.000000) scale(0.100000,-0.100000)"
fill="#000000" stroke="none">
<path d="M3720 8982 c0 -9 -7 -13 -19 -9 -14 3 -17 0 -13 -15 3 -12 0 -18 -9
-16 -7 2 -14 -4 -14 -12 0 -8 -6 -14 -13 -12 -7 1 -12 -4 -12 -12 0 -8 -3 -16
-8 -18 -4 -1 -23 -23 -42 -48 -57 -73 -64 -82 -81 -100 -8 -9 -19 -24 -22 -34
-4 -9 -12 -14 -17 -11 -6 4 -10 3 -9 -2 1 -4 -2 -17 -6 -28 -9 -19 -16 -30
-41 -58 -6 -7 -9 -18 -6 -25 2 -6 -1 -12 -7 -12 -6 0 -11 -9 -11 -20 0 -11 -4
-20 -8 -20 -7 0 -24 -53 -38 -112 -1 -5 -2 -9 -4 -10 -1 -2 -3 -10 -5 -18 -2
-8 -7 -26 -10 -40 -4 -14 -8 -33 -8 -42 -1 -9 -5 -14 -11 -11 -5 3 -7 -5 -4
-20 3 -15 1 -28 -4 -29 -6 -2 -11 -17 -11 -33 -1 -17 -9 -38 -18 -47 -9 -11
-14 -33 -13 -58 1 -22 -2 -37 -7 -34 -5 3 -9 -1 -10 -8 0 -7 -3 -44 -6 -83 -3
-38 -6 -92 -6 -120 0 -44 3 -84 17 -266 2 -20 6 -41 10 -48 4 -6 0 -14 -9 -17
-12 -5 -13 -9 -4 -20 11 -13 5 -18 -14 -15 -5 1 -5 -3 -2 -9 4 -6 13 -9 21 -6
8 3 14 3 14 0 0 -2 -12 -9 -26 -14 -14 -6 -23 -14 -19 -19 3 -5 1 -12 -5 -16
-5 -3 -7 -17 -4 -31 4 -15 2 -24 -6 -24 -7 0 -10 -6 -7 -14 3 -8 3 -17 -1 -20
-3 -4 -7 -12 -8 -19 -1 -7 -3 -19 -5 -27 -2 -8 2 -14 9 -12 8 1 11 -2 7 -8 -3
-6 -11 -8 -16 -5 -9 6 -13 -14 -10 -52 1 -13 -2 -23 -7 -23 -5 0 -9 -6 -9 -12
0 -7 -3 -26 -6 -42 -4 -16 -3 -26 0 -22 4 4 8 13 9 21 1 8 8 27 16 42 7 15 13
37 13 48 0 11 3 23 8 26 13 10 17 50 4 43 -7 -3 -1 3 13 14 24 20 40 20 40 1
0 -6 -4 -8 -9 -5 -5 3 -8 -10 -6 -29 1 -19 -1 -35 -4 -35 -3 0 -6 -18 -6 -40
0 -22 4 -40 8 -40 4 0 4 -8 0 -17 -8 -16 -9 -44 -5 -96 1 -10 7 -15 12 -12 6
4 7 12 3 18 -9 14 -10 37 -2 52 3 6 5 34 5 62 -1 29 1 53 4 53 3 0 6 19 7 43
1 23 5 51 8 63 4 18 1 20 -20 16 -14 -2 -25 -8 -25 -13 0 -5 -4 -9 -9 -9 -5 0
-1 17 9 37 18 37 18 59 -1 48 -5 -4 -9 -2 -9 4 0 5 5 13 10 16 6 3 10 1 10 -5
0 -6 5 -8 11 -4 6 3 10 -1 9 -12 -4 -33 0 -37 18 -23 15 13 16 12 4 -3 -8 -10
-9 -18 -3 -22 6 -4 10 -19 10 -34 0 -15 2 -56 4 -92 3 -36 1 -70 -4 -75 -4 -6
-10 -30 -13 -55 -2 -25 -5 -48 -5 -52 -1 -4 -8 -14 -18 -23 -14 -14 -14 -18
-2 -26 13 -8 5 -13 -14 -10 -5 1 -5 -4 -1 -11 4 -6 7 -31 5 -55 -1 -34 2 -43
14 -43 9 0 14 4 11 9 -4 5 0 12 6 14 10 4 10 8 -1 15 -9 7 -10 12 -2 16 6 4
11 12 11 17 0 6 -5 7 -11 3 -6 -3 -4 5 5 18 9 14 13 28 9 31 -3 4 -2 7 3 7 8
0 14 22 17 68 1 30 20 2 23 -34 1 -21 5 -66 9 -99 9 -81 10 -96 1 -127 -7 -23
-11 -26 -26 -18 -12 7 -20 6 -22 0 -4 -14 -48 17 -47 33 0 9 2 9 6 0 2 -7 12
-13 20 -13 14 0 13 3 -3 22 -10 12 -14 18 -7 15 6 -4 14 -3 17 1 3 5 -4 9 -16
8 -27 -1 -34 -39 -12 -61 9 -9 15 -17 13 -18 -4 -3 -56 -23 -174 -67 -66 -25
-131 -53 -185 -78 -19 -9 -39 -15 -43 -14 -4 1 -15 -5 -23 -13 -9 -8 -20 -13
-25 -10 -5 4 -9 1 -9 -5 0 -6 -6 -10 -12 -9 -13 3 -211 -93 -235 -112 -7 -6
-17 -8 -23 -4 -5 3 -10 -2 -10 -11 0 -10 -3 -14 -6 -11 -4 3 -16 1 -28 -5 -11
-7 -25 -12 -29 -13 -4 0 -12 -6 -16 -14 -5 -7 -14 -10 -20 -7 -6 4 -11 0 -11
-8 0 -9 -6 -16 -12 -16 -19 0 -84 -61 -92 -85 -5 -18 -11 -123 -6 -135 1 -4 7
-63 13 -132 1 -10 8 -18 17 -18 10 0 11 -3 3 -8 -8 -5 -6 -13 6 -27 30 -35 65
-49 149 -60 24 -2 51 -31 52 -52 0 -7 5 -13 10 -13 6 0 10 -7 10 -15 0 -8 5
-15 10 -15 6 0 10 -5 10 -11 0 -6 7 -17 15 -26 8 -8 13 -19 10 -24 -4 -5 1 -9
10 -9 11 0 15 -5 11 -15 -3 -9 0 -15 9 -15 9 0 12 -6 9 -15 -4 -9 0 -15 9 -15
13 0 31 -33 28 -52 -1 -7 14 -12 30 -10 4 1 5 -8 2 -18 -4 -14 0 -20 11 -20
10 0 15 -3 12 -8 -2 -4 9 -26 25 -50 16 -23 29 -47 29 -52 0 -6 6 -10 13 -10
7 0 18 -13 24 -30 6 -16 7 -30 3 -30 -5 0 -5 -14 0 -31 5 -16 7 -36 4 -44 -3
-7 0 -16 6 -20 8 -5 8 -10 0 -20 -8 -9 -6 -14 7 -19 15 -6 15 -8 3 -17 -13 -8
-13 -10 -1 -18 12 -8 12 -12 2 -25 -11 -14 -11 -16 4 -16 14 0 15 -3 5 -15 -8
-9 -9 -15 -2 -15 9 0 19 -38 27 -100 0 -3 4 -11 9 -18 4 -7 5 -16 2 -19 -3 -3
-1 -12 4 -19 6 -6 10 -16 8 -20 -3 -11 85 -186 115 -228 12 -17 32 -42 44 -56
13 -14 23 -28 23 -32 0 -5 7 -8 15 -8 8 0 15 -6 15 -14 0 -8 7 -17 16 -20 8
-3 12 -10 9 -16 -3 -5 2 -10 12 -11 11 0 13 -2 5 -6 -10 -4 -9 -9 4 -24 9 -10
14 -19 10 -19 -4 0 -2 -8 3 -18 7 -13 6 -23 -2 -32 -10 -10 -9 -11 2 -5 11 6
13 4 8 -7 -3 -9 -3 -19 1 -22 10 -11 11 -36 1 -36 -11 0 -7 -23 6 -32 7 -5 6
-8 0 -8 -6 0 -10 -20 -9 -45 2 -50 2 -50 -28 -34 -15 8 -19 8 -14 0 4 -6 0
-11 -8 -11 -22 0 -20 -17 4 -32 11 -7 20 -18 20 -24 0 -11 27 -28 40 -26 3 0
6 -11 6 -24 2 -23 1 -24 -12 -7 -12 16 -13 16 -8 -7 5 -20 3 -22 -5 -10 -7 10
-11 11 -11 3 0 -17 -34 -17 -62 -1 -32 19 -83 69 -81 79 2 5 -1 9 -5 9 -7 0
-12 19 -15 63 -1 9 -5 17 -9 17 -4 0 -5 6 -2 13 2 7 -2 26 -9 41 -11 21 -16
23 -20 11 -4 -8 -2 -15 3 -15 6 0 8 -10 6 -22 -2 -13 0 -28 4 -33 5 -6 2 -19
-6 -29 -13 -19 -14 -19 -14 6 0 15 -5 30 -10 33 -8 5 -7 11 1 21 9 10 9 14 0
14 -15 0 -27 -30 -15 -39 13 -9 17 -74 4 -66 -5 3 -10 13 -10 21 0 8 -5 14
-10 14 -6 0 -4 -13 5 -30 11 -21 20 -27 32 -23 13 5 13 3 -3 -13 -10 -11 -25
-20 -33 -20 -8 1 -16 -5 -18 -11 -3 -7 0 -13 7 -13 6 0 8 6 4 13 -4 7 -3 8 2
4 5 -5 9 -20 10 -35 2 -36 14 -72 25 -72 5 0 9 -7 9 -15 0 -8 4 -15 9 -15 5 0
12 -7 15 -16 5 -14 4 -15 -9 -4 -9 8 -15 8 -15 2 0 -6 9 -14 20 -17 11 -3 20
-11 20 -16 0 -5 11 -9 24 -9 14 0 28 -5 31 -10 4 -6 10 -8 15 -5 4 3 13 -2 20
-10 6 -7 17 -12 24 -9 7 3 25 0 41 -6 27 -10 27 -11 9 -33 -14 -16 -14 -18 -2
-9 18 15 34 0 22 -20 -5 -8 -2 -9 10 -5 10 4 24 1 33 -9 9 -8 22 -13 29 -10 8
3 14 1 14 -5 0 -6 7 -8 16 -5 13 5 15 2 11 -14 -6 -24 8 -27 17 -4 5 13 9 14
21 4 13 -11 13 -14 -2 -26 -14 -10 -14 -13 -4 -14 8 0 12 -3 9 -6 -4 -3 -16 0
-28 6 -17 9 -25 8 -40 -5 -18 -16 -53 -17 -77 -2 -7 5 -13 4 -13 -1 0 -5 -10
-13 -22 -19 -20 -9 -18 -11 25 -25 25 -8 44 -11 41 -7 -8 14 6 10 22 -5 21
-21 17 -27 -16 -24 -16 1 -30 5 -30 9 0 4 -7 9 -15 13 -22 8 -18 0 12 -28 25
-23 25 -25 5 -19 -12 3 -22 3 -22 -1 0 -3 14 -9 32 -14 18 -4 28 -11 23 -14
-6 -3 -28 2 -49 13 -51 25 -65 24 -38 -1 12 -11 24 -20 28 -20 4 0 16 -7 26
-17 12 -10 18 -12 18 -4 0 7 5 9 10 6 6 -4 9 -14 8 -23 -3 -15 7 -17 69 -15
62 1 72 -1 76 -17 3 -10 -2 -28 -10 -40 -8 -11 -11 -20 -6 -19 21 4 33 -2 33
-15 0 -24 -20 -29 -41 -10 -10 9 -22 15 -25 11 -3 -3 6 -16 20 -28 14 -12 26
-32 26 -43 1 -52 76 -166 100 -151 5 3 11 1 15 -5 3 -5 29 -10 56 -10 31 0 56
-6 65 -15 8 -8 23 -19 32 -24 14 -8 15 -12 5 -22 -16 -16 -17 -30 -2 -26 6 1
14 -4 17 -12 2 -8 0 -11 -6 -7 -6 3 -14 2 -17 -4 -4 -6 -3 -9 2 -8 4 2 8 -1 8
-7 0 -5 -3 -9 -7 -8 -3 1 -9 -4 -12 -12 -3 -8 0 -15 7 -15 7 0 4 -5 -5 -11
-10 -5 -18 -15 -18 -20 0 -6 6 -7 13 -3 9 6 9 4 -1 -8 -7 -8 -10 -22 -6 -31 3
-9 -3 -24 -14 -35 -20 -20 -20 -20 0 -25 11 -3 17 -3 14 0 -3 3 8 30 24 60 16
29 29 56 29 59 0 3 3 9 7 12 4 4 5 2 1 -3 -3 -6 -2 -17 3 -25 6 -9 -1 -23 -21
-43 -17 -16 -27 -32 -24 -35 3 -3 -1 -15 -9 -27 -15 -23 -11 -38 14 -47 19 -7
19 -50 -1 -74 -11 -13 -11 -18 -2 -21 10 -4 10 -10 2 -26 -9 -21 -9 -21 5 -3
8 10 20 15 26 11 8 -5 8 -11 -1 -21 -6 -8 -8 -14 -4 -14 5 0 0 -9 -9 -19 -12
-13 -14 -21 -6 -26 6 -3 9 -1 8 6 -2 7 5 15 15 17 15 3 18 0 13 -16 -4 -12 -1
-26 8 -34 12 -11 12 -15 -2 -31 -15 -16 -15 -17 1 -11 12 4 17 1 17 -10 0 -9
4 -16 10 -16 5 0 8 -16 6 -36 -1 -19 3 -47 11 -61 16 -32 17 -46 1 -38 -7 4
-3 -2 9 -13 21 -18 21 -21 5 -27 -15 -5 -14 -8 8 -25 20 -16 22 -20 8 -20 -10
0 -18 -4 -18 -10 0 -5 5 -10 10 -10 6 0 14 -10 19 -22 9 -25 3 -60 -9 -53 -5
3 -11 1 -15 -4 -3 -6 4 -8 16 -6 14 3 19 0 16 -9 -3 -8 0 -19 6 -25 8 -8 8
-11 -1 -11 -7 0 -12 -5 -12 -11 0 -6 7 -8 16 -5 15 6 15 4 0 -19 -10 -14 -12
-25 -6 -25 6 0 8 -4 5 -10 -3 -5 -1 -10 6 -10 8 0 8 -4 -1 -15 -10 -12 -9 -16
4 -21 12 -4 15 -16 13 -40 -3 -18 -1 -31 3 -29 16 10 17 -47 1 -63 -15 -15
-15 -15 1 -9 28 10 33 -14 8 -35 -12 -10 -17 -18 -11 -18 6 0 8 -8 5 -17 -5
-15 -4 -15 4 -3 6 8 8 18 6 22 -3 4 2 5 10 2 11 -4 13 -11 7 -22 -9 -19 -4
-43 13 -54 7 -5 6 -8 -3 -8 -11 0 -11 -3 -1 -15 15 -18 0 -20 -20 -2 -12 10
-12 9 -1 -6 11 -13 11 -20 1 -32 -10 -12 -8 -14 9 -10 27 5 36 -11 14 -24 -14
-8 -16 -12 -5 -22 6 -7 12 -9 12 -3 0 5 5 2 10 -6 9 -13 10 -13 10 0 0 9 9 16
20 16 11 0 20 -3 20 -7 0 -7 -40 -22 -53 -20 -14 2 -1 -48 18 -70 11 -12 15
-20 10 -16 -6 3 -17 2 -25 -4 -11 -6 -12 -9 -2 -9 7 0 10 -4 7 -10 -3 -5 0
-10 7 -10 9 0 9 -3 -2 -10 -9 -6 -11 -10 -3 -10 7 0 10 -7 7 -15 -4 -8 -1 -15
5 -15 9 0 9 -5 2 -17 -7 -13 -5 -23 6 -35 10 -11 11 -18 5 -18 -6 0 -9 -7 -6
-15 4 -8 11 -12 18 -8 6 3 8 3 4 -2 -4 -4 -3 -14 3 -22 9 -10 8 -13 -3 -13 -9
0 -14 -10 -14 -29 0 -17 3 -28 7 -26 4 3 10 -2 13 -11 3 -8 2 -12 -3 -9 -5 3
-13 0 -17 -6 -4 -8 -3 -9 4 -5 16 9 15 -7 0 -22 -9 -9 -6 -9 14 0 20 10 24 16
17 30 -6 11 -5 18 4 22 7 3 3 7 -10 11 -13 4 -23 12 -23 17 0 5 5 6 10 3 6 -3
13 1 16 9 3 9 13 16 22 16 13 0 12 -3 -4 -15 -13 -10 -15 -17 -8 -22 7 -5 10
-25 9 -46 -3 -32 -1 -38 13 -32 13 5 13 2 -3 -15 -17 -19 -14 -25 10 -20 6 1
4 -4 -2 -11 -19 -19 -16 -32 5 -24 13 5 14 3 5 -6 -14 -14 -34 -3 -31 18 2 9
-5 17 -14 18 -14 3 -16 -1 -8 -14 6 -12 5 -22 -3 -31 -9 -10 -9 -11 1 -6 6 4
12 2 12 -4 0 -6 3 -9 8 -6 4 2 16 -2 27 -10 10 -8 14 -14 8 -14 -7 0 -14 4
-17 9 -7 11 -32 9 -43 -4 -5 -4 -2 -5 6 0 11 6 13 4 8 -9 -5 -14 -3 -16 12
-11 11 3 22 1 26 -5 5 -8 12 -7 23 2 10 7 6 0 -7 -15 -14 -15 -29 -27 -35 -27
-5 0 -2 6 9 13 13 10 15 16 6 21 -7 5 -15 5 -19 2 -10 -11 -10 -56 1 -56 5 0
7 -13 5 -29 -4 -25 -2 -28 11 -21 10 5 23 3 36 -6 10 -8 14 -14 9 -14 -6 0
-15 5 -21 11 -13 13 -26 -4 -29 -40 -3 -21 -1 -23 7 -11 8 12 10 10 5 -9 -5
-23 -4 -23 27 5 17 16 26 22 19 13 -6 -9 -8 -20 -4 -24 4 -5 2 -5 -5 -1 -16 9
-28 -13 -15 -26 8 -8 6 -18 -6 -36 -16 -24 -16 -25 8 -18 24 7 24 6 6 -8 -19
-15 -11 -22 17 -17 5 1 6 -3 2 -9 -3 -6 -11 -8 -16 -5 -5 4 -9 1 -9 -4 0 -6 6
-11 14 -11 8 0 18 -5 22 -12 4 -6 3 -8 -4 -5 -6 5 -6 -2 1 -18 7 -14 16 -25
20 -25 5 0 5 -5 2 -10 -4 -6 -1 -18 7 -27 9 -12 9 -15 1 -9 -7 4 -13 3 -13 -3
0 -5 6 -12 13 -14 9 -4 8 -6 -2 -6 -10 -1 -10 -7 4 -27 9 -15 12 -23 6 -20 -6
4 -11 0 -11 -9 0 -10 5 -14 13 -9 9 5 9 4 1 -5 -12 -13 3 -71 18 -71 4 0 5 -7
2 -15 -5 -13 4 -19 26 -17 3 0 5 -10 5 -23 0 -13 -3 -21 -7 -18 -14 8 -9 -6
24 -69 17 -34 33 -72 34 -86 4 -36 13 -54 23 -48 5 3 7 -3 4 -14 -3 -11 0 -20
6 -20 6 0 11 -9 11 -19 0 -11 8 -26 17 -33 10 -7 19 -20 21 -28 2 -8 12 -23
24 -32 11 -10 16 -18 12 -18 -5 0 -3 -4 4 -8 7 -5 15 -21 18 -37 6 -36 13 -47
24 -40 4 3 6 -4 3 -15 -3 -11 -1 -20 5 -20 9 0 23 -34 27 -65 0 -5 7 -9 15 -7
11 3 11 0 0 -12 -10 -14 -9 -16 7 -16 10 0 25 6 32 12 11 10 13 10 7 0 -6 -9
397 -12 1998 -12 l2006 0 0 4500 0 4500 -2100 -2 c-1155 -2 -2100 -6 -2100
-11 1 -13 -39 -51 -47 -44 -3 4 -1 18 5 32 l12 25 -130 0 c-129 0 -130 0 -147
-27 -9 -14 -18 -33 -19 -41 -3 -18 -90 -145 -115 -168 -32 -29 29 79 72 127
26 29 35 46 27 51 -9 5 -8 12 5 26 9 10 17 22 17 25 0 4 -47 6 -105 5 -83 -1
-105 -5 -105 -16z m91 -34 c-17 -15 -29 -28 -26 -28 2 0 -8 -21 -24 -47 -16
-27 -33 -47 -39 -46 -5 1 -8 -7 -5 -17 3 -11 1 -20 -5 -20 -6 0 -20 -16 -32
-35 -12 -19 -25 -35 -30 -35 -10 0 -1 40 13 58 6 7 20 34 32 60 19 40 59 87
117 138 7 7 17 9 22 6 5 -3 -5 -18 -23 -34z m363 -68 c-9 -16 -17 -30 -19 -30
-2 0 1 14 6 30 6 17 15 30 19 30 5 0 2 -13 -6 -30z m-497 -25 c-7 -14 -15 -25
-18 -25 -4 0 -17 -26 -30 -57 -26 -66 -44 -98 -73 -130 -11 -13 -16 -23 -12
-23 4 0 -5 -11 -19 -26 -14 -14 -34 -42 -45 -64 -11 -21 -24 -41 -30 -45 -5
-3 -10 -15 -10 -26 0 -13 -4 -18 -12 -13 -8 5 -9 2 -5 -10 4 -10 3 -15 -3 -11
-6 3 -10 -1 -10 -9 0 -18 -16 -21 -25 -6 -3 6 -2 10 4 10 5 0 13 15 16 33 4
17 10 37 14 42 3 6 13 28 21 51 22 59 102 183 122 190 10 3 17 8 15 12 -2 9
29 54 65 92 14 16 23 31 20 34 -3 3 2 6 10 6 14 0 14 -4 5 -25z m574 -14 c-7
-5 -11 -13 -7 -19 3 -6 2 -13 -3 -16 -5 -3 -23 -31 -40 -61 -17 -30 -34 -55
-36 -55 -3 0 -1 9 5 21 7 11 9 23 6 26 -6 6 19 55 44 85 8 10 16 23 16 28 1 6
2 13 3 17 0 4 7 1 13 -5 10 -10 10 -15 -1 -21z m-111 -171 c0 -5 -5 -10 -11
-10 -5 0 -7 5 -4 10 3 6 8 10 11 10 2 0 4 -4 4 -10z m-509 -88 c-10 -27 -23
-57 -29 -68 -19 -31 -14 1 8 50 10 25 17 46 14 46 -3 0 -2 5 1 10 3 6 10 10
15 10 4 0 0 -22 -9 -48z m479 33 c-7 -8 -10 -15 -6 -15 10 0 -30 -64 -43 -68
-10 -3 -11 0 -5 9 5 8 9 16 10 19 6 31 32 70 46 70 6 0 5 -7 -2 -15z m-556
-74 c-5 -3 -11 -17 -13 -31 -1 -14 -10 -38 -18 -54 -8 -16 -21 -52 -29 -80 -8
-28 -18 -58 -21 -66 -4 -8 -7 -17 -7 -20 -1 -3 -7 -15 -14 -26 -6 -12 -8 -24
-5 -28 3 -3 1 -6 -6 -6 -7 0 -9 -5 -5 -12 4 -6 3 -8 -4 -5 -10 7 14 106 33
138 5 6 9 22 11 33 6 38 9 51 19 66 5 9 0 8 -13 -4 -12 -11 -20 -21 -18 -24 3
-2 -6 -34 -20 -71 -14 -36 -26 -73 -28 -80 -1 -8 -8 -17 -14 -19 -8 -2 -8 6
-2 27 5 17 6 31 3 31 -3 0 -1 6 5 13 6 6 10 17 11 22 0 19 35 95 43 95 4 0 8
8 8 18 0 19 27 50 45 51 6 1 10 4 11 9 2 20 17 41 26 36 6 -4 6 -9 2 -13z m-4
-141 c0 -11 -2 -20 -4 -20 -2 0 -6 9 -9 20 -3 11 -1 20 4 20 5 0 9 -9 9 -20z
m520 -16 c0 -2 -7 -4 -15 -4 -8 0 -15 4 -15 10 0 5 7 7 15 4 8 -4 15 -8 15
-10z m-684 -19 c-9 -14 -14 -30 -11 -35 3 -6 -1 -10 -10 -10 -12 0 -14 6 -9
28 9 37 13 42 31 42 14 0 13 -3 -1 -25z m654 -30 c-5 -14 -7 -25 -4 -25 4 0
-5 -15 -19 -34 -15 -18 -23 -36 -20 -40 4 -3 -1 -6 -11 -6 -15 0 -15 2 -2 23
14 21 16 26 16 46 0 9 39 61 45 61 3 0 0 -11 -5 -25z m-678 -31 c3 -3 -1 -18
-9 -34 -15 -31 -10 -55 9 -44 8 5 9 1 4 -12 -5 -10 -8 -23 -7 -29 8 -56 5
-100 -7 -97 -10 2 -10 -2 -2 -18 10 -19 6 -25 -14 -21 -5 1 -4 -5 3 -13 9 -11
10 -20 1 -35 -6 -12 -8 -21 -4 -21 3 0 2 -6 -2 -12 -5 -7 -9 -28 -9 -45 0 -18
-3 -33 -7 -33 -4 0 -7 -10 -7 -22 0 -13 -2 -32 -4 -43 -3 -11 -8 -45 -12 -75
-4 -30 -9 -62 -11 -70 -1 -8 -3 -28 -3 -43 -1 -17 -5 -26 -11 -22 -6 4 -10 12
-9 18 2 7 -1 51 -5 99 -12 123 -13 249 -3 255 5 3 6 11 3 19 -3 7 -1 16 4 19
13 8 13 25 -1 25 -5 0 -7 -5 -3 -12 5 -7 3 -8 -6 -3 -10 6 -9 11 4 21 9 6 18
21 19 33 1 12 4 21 7 21 3 0 6 15 7 32 2 18 7 34 12 36 6 2 7 10 4 17 -3 8 2
22 11 30 9 9 16 25 16 36 0 10 4 19 10 19 5 0 7 7 4 15 -6 14 7 21 18 9z m743
-4 c3 -5 -1 -10 -10 -10 -9 0 -13 5 -10 10 3 6 8 10 10 10 2 0 7 -4 10 -10z
m-10 -30 c3 -5 1 -10 -5 -10 -6 0 -9 -3 -6 -8 2 -4 -1 -18 -8 -31 -7 -13 -16
-19 -19 -14 -3 5 0 21 8 36 7 14 11 28 7 31 -3 3 0 6 6 6 6 0 14 -4 17 -10z
m-132 -242 c-9 -18 -23 -42 -31 -53 -13 -19 -14 -19 -7 4 4 13 8 29 10 35 5
27 18 46 30 46 11 0 10 -7 -2 -32z m81 6 c3 -8 2 -12 -4 -9 -6 3 -10 10 -10
16 0 14 7 11 14 -7z m-4 -40 c0 -8 -5 -14 -11 -14 -5 0 -7 -5 -4 -10 4 -6 12
-8 18 -4 7 3 4 -1 -7 -10 -10 -8 -15 -19 -12 -25 4 -5 2 -12 -3 -16 -6 -3 -8
-12 -4 -20 3 -8 0 -15 -7 -15 -7 0 -9 -8 -5 -20 4 -12 2 -20 -5 -20 -6 0 -10
-6 -9 -12 2 -21 -12 -58 -23 -58 -5 0 -6 -5 -3 -10 4 -6 2 -16 -3 -23 -6 -7
-10 -14 -10 -17 -1 -3 -5 -18 -11 -33 -6 -16 -11 -35 -11 -43 0 -9 -5 -12 -12
-8 -8 5 -9 0 -6 -14 4 -15 2 -22 -9 -22 -10 0 -12 -6 -8 -20 5 -15 3 -18 -9
-14 -19 7 -21 -7 -4 -24 9 -9 7 -12 -10 -12 -23 0 -32 -20 -9 -20 7 0 5 -5 -5
-11 -10 -5 -15 -16 -11 -25 5 -13 2 -13 -23 -2 -27 12 -27 13 -6 16 24 4 30
18 10 24 -10 4 -10 10 0 29 l12 24 -5 -25 c-5 -22 -4 -23 5 -7 7 10 9 25 6 33
-3 9 -1 12 4 9 14 -9 12 8 -2 24 -11 11 -10 12 1 6 10 -6 13 -4 9 7 -4 8 -2
21 4 29 8 11 9 11 4 -3 -3 -10 -2 -20 3 -22 4 -3 8 0 8 7 0 7 4 21 9 31 6 15
4 18 -7 12 -8 -4 -6 -1 4 7 18 15 24 33 8 22 -5 -3 -13 0 -17 7 -4 7 -4 10 1
6 12 -11 35 11 35 33 0 11 5 19 11 19 8 0 7 6 -2 17 -8 9 -9 14 -3 10 11 -6
42 49 36 66 -1 4 2 7 7 7 5 0 12 10 16 23 4 12 8 25 10 30 6 18 7 22 6 30 0 4
4 7 9 7 6 0 10 7 10 15 0 8 -5 15 -11 15 -5 0 -7 5 -3 11 5 8 9 8 14 -1 5 -9
9 -9 14 -1 4 6 4 16 0 23 -4 7 -3 8 4 4 7 -4 12 -14 12 -22z m-663 -86 c-3 -8
-6 -5 -6 6 -1 11 2 17 5 13 3 -3 4 -12 1 -19z m-7 -33 c0 -8 -4 -15 -10 -15
-5 0 -7 7 -4 15 4 8 8 15 10 15 2 0 4 -7 4 -15z m0 -29 c0 -3 -4 -8 -10 -11
-5 -3 -10 -1 -10 4 0 6 5 11 10 11 6 0 10 -2 10 -4z m-14 -45 c-10 -16 -25
-104 -32 -186 -5 -64 -20 -155 -24 -142 -2 8 -2 76 0 80 1 1 3 27 6 57 5 68
10 101 17 120 10 27 20 75 18 83 -1 5 3 6 9 2 6 -3 8 -10 6 -14z m27 -153 c-2
-5 1 -16 9 -25 9 -12 9 -15 1 -9 -8 4 -13 1 -13 -8 0 -9 6 -16 13 -16 8 0 8
-3 -2 -9 -9 -6 -15 -31 -17 -73 -1 -34 -4 -70 -6 -78 -3 -8 -8 -30 -12 -47 -4
-18 -12 -33 -17 -33 -6 0 -7 9 -4 21 5 14 4 19 -4 15 -7 -5 -9 -1 -5 8 3 9 11
16 17 16 8 0 7 4 -1 12 -6 6 -8 17 -3 27 5 9 7 24 6 34 -2 9 2 17 8 17 7 0 6
5 -3 10 -9 6 -11 13 -5 18 6 4 11 23 13 42 3 43 9 103 11 110 1 3 5 -2 10 -10
6 -8 7 -18 4 -22z m447 -203 c16 -19 1 -19 -24 0 -16 12 -17 15 -4 15 8 0 21
-7 28 -15z m-16 -33 c3 -5 -1 -9 -9 -9 -8 0 -15 4 -15 9 0 4 4 8 9 8 6 0 12
-4 15 -8z m-20 -37 c3 -8 1 -15 -4 -15 -6 0 -10 7 -10 15 0 8 2 15 4 15 2 0 6
-7 10 -15z m-451 -61 c-6 -17 -23 -9 -23 11 0 8 6 12 14 9 8 -3 12 -12 9 -20z
m2 -33 c3 -6 -3 -9 -14 -8 -11 0 -17 5 -15 9 7 11 22 10 29 -1z m457 -93 c-8
-8 -9 -4 -5 13 4 13 8 18 11 10 2 -7 -1 -18 -6 -23z m-7 -28 c-3 -5 -12 -10
-18 -10 -7 0 -6 4 3 10 19 12 23 12 15 0z m-14 -33 c-6 -8 -8 -17 -4 -21 4 -4
0 -4 -10 0 -17 6 -17 7 0 20 23 17 28 18 14 1z m-11 -47 c0 -5 -4 -10 -10 -10
-5 0 -10 5 -10 10 0 6 5 10 10 10 6 0 10 -4 10 -10z m-296 -16 c3 -8 2 -12 -4
-9 -6 3 -10 10 -10 16 0 14 7 11 14 -7z m289 -16 c-4 -7 -8 -15 -8 -18 -7 -54
-17 -78 -32 -73 -13 5 -14 8 -2 17 8 6 13 19 11 29 -2 9 2 17 8 17 10 0 10 3
1 14 -10 11 -8 15 6 19 10 3 19 5 21 6 2 0 0 -5 -5 -11z m-273 -11 c-21 -17
-22 -67 -1 -68 13 0 12 -2 -3 -8 -14 -5 -16 -10 -8 -15 17 -10 15 -36 -4 -36
-8 0 -13 -4 -9 -10 7 -11 -30 -50 -47 -50 -9 0 -8 4 2 10 8 5 12 10 9 10 -4 0
-3 17 2 38 10 40 15 62 24 104 5 23 16 32 45 37 3 0 -2 -5 -10 -12z m14 -149
c-3 -4 -9 -8 -15 -8 -5 0 -9 4 -9 8 0 5 7 9 15 9 8 0 12 -4 9 -9z m-191 -2379
c-5 -16 -2 -20 8 -17 8 3 13 10 12 15 -1 5 4 10 12 10 18 0 7 -25 -16 -38 -11
-5 -18 -13 -15 -17 5 -9 -20 -33 -27 -25 -4 3 0 12 8 20 17 16 20 37 5 28 -8
-5 -8 17 -1 43 1 1 5 2 10 2 5 0 7 -10 4 -21z m92 -45 c0 -16 -4 -32 -10 -36
-6 -5 -5 -16 4 -30 13 -21 13 -22 -2 -10 -11 10 -17 10 -22 1 -4 -6 -1 -15 6
-20 12 -7 11 -9 -1 -10 -8 -1 -22 0 -30 1 -11 1 -10 -2 4 -13 21 -15 6 -34
-16 -21 -7 5 -9 2 -5 -9 4 -11 -1 -18 -14 -22 -10 -4 -17 -11 -14 -16 4 -5 0
-9 -8 -9 -17 0 -17 40 1 58 7 8 10 18 6 23 -3 5 2 12 10 15 9 3 16 11 16 17 0
5 12 34 26 64 27 58 49 65 49 17z m-440 -244 c-9 -14 -25 5 -25 30 0 12 3 12
16 -2 9 -9 13 -21 9 -28z m25 -14 c0 -3 -4 -8 -10 -11 -5 -3 -10 -1 -10 4 0 6
5 11 10 11 6 0 10 -2 10 -4z m-40 -36 c6 -11 9 -20 7 -20 -2 0 -12 9 -22 20
-10 11 -13 20 -7 20 6 0 16 -9 22 -20z m599 -69 c-15 -5 -22 6 -14 19 6 9 10
9 16 -1 5 -8 4 -15 -2 -18z m-63 -10 c-3 -5 1 -14 9 -21 13 -11 14 -10 9 3 -3
10 -1 15 8 13 21 -3 38 -16 38 -29 0 -8 -3 -7 -9 2 -13 20 -52 -20 -40 -42 6
-11 4 -14 -9 -13 -9 0 -16 -5 -14 -11 1 -7 -3 -13 -9 -13 -6 0 -17 -7 -25 -15
-9 -8 -20 -15 -25 -15 -5 0 -9 7 -9 15 0 8 5 15 10 15 6 0 10 9 10 20 0 11 13
29 30 41 21 16 27 26 20 34 -5 7 -7 15 -3 18 9 10 15 8 9 -2z m-22 -33 c-10
-16 -22 -7 -17 13 4 15 8 17 14 8 4 -7 5 -17 3 -21z m-104 -28 c-7 -4 -10 -12
-6 -18 3 -6 -2 -16 -11 -22 -13 -8 -14 -13 -6 -16 23 -10 -20 -44 -46 -37 -17
4 -19 8 -9 14 10 6 10 11 0 21 -16 16 -15 28 4 28 9 0 12 5 8 12 -10 17 22 36
52 30 17 -3 22 -7 14 -12z m210 -130 c0 -5 -9 -15 -19 -22 -10 -6 -17 -17 -14
-25 3 -7 -2 -16 -11 -19 -28 -11 -27 1 1 39 28 36 43 46 43 27z m-158 -80 c3
-21 1 -27 -6 -20 -18 18 -26 11 -16 -16 7 -16 7 -23 0 -19 -5 3 -18 1 -29 -5
-23 -12 -40 5 -22 23 8 8 11 8 11 -1 0 -7 5 -12 10 -12 6 0 10 9 10 20 0 23
-28 27 -50 8 -8 -7 -6 -3 4 9 15 18 23 20 37 12 11 -5 20 -6 21 -2 0 4 2 13 3
18 2 6 3 14 4 18 2 19 19 -5 23 -33z m98 -5 c0 -2 -10 -10 -22 -16 -21 -11
-22 -11 -9 4 13 16 31 23 31 12z m-220 -60 c6 4 8 11 5 16 -9 13 9 11 23 -3
20 -20 14 -28 -21 -28 -41 0 -46 5 -39 32 5 21 5 21 14 -1 4 -12 12 -19 18
-16z m-30 -62 c0 -10 6 -14 20 -10 11 3 20 1 20 -4 0 -5 -8 -9 -17 -10 -10 0
-26 -2 -36 -4 -15 -3 -16 -1 -6 11 6 7 9 21 5 29 -3 9 -2 13 4 10 6 -3 10 -13
10 -22z m256 -13 c-16 -5 -16 -7 3 -24 24 -22 28 -38 6 -30 -8 4 -13 10 -10
14 3 4 -2 13 -10 20 -12 10 -15 10 -15 0 0 -8 -3 -10 -7 -7 -3 4 -11 3 -17 -3
-8 -6 -12 -3 -12 11 0 18 8 23 33 20 6 -1 14 3 18 9 3 6 11 7 18 3 7 -4 5 -9
-7 -13z m18 -68 c8 -13 -11 -35 -23 -28 -6 4 -11 3 -11 -2 0 -12 -38 -23 -45
-12 -3 4 9 13 25 20 17 7 30 16 30 21 0 11 17 12 24 1z m-84 -156 c0 -12 5
-27 12 -34 7 -7 9 -12 5 -12 -11 0 -56 53 -57 67 0 6 8 9 20 6 12 -3 20 -14
20 -27z m74 -48 c-9 -14 -26 -8 -21 6 4 10 1 13 -7 10 -16 -6 -21 0 -30 40 -7
30 -7 30 28 -9 19 -22 32 -43 30 -47z m162 -433 c-1 -8 -5 -17 -8 -21 -5 -4
-4 16 1 34 3 9 9 -1 7 -13z m-16 -70 c0 -8 -4 -15 -9 -15 -13 0 -22 16 -14 24
11 11 23 6 23 -9z m237 -851 c-3 -3 -12 -4 -19 -1 -8 3 -5 6 6 6 11 1 17 -2
13 -5z m13 -34 c0 -5 -5 -10 -11 -10 -5 0 -7 5 -4 10 3 6 8 10 11 10 2 0 4 -4
4 -10z m10 -62 c0 -6 -6 -5 -15 2 -8 7 -15 14 -15 16 0 2 7 1 15 -2 8 -4 15
-11 15 -16z m-2 -43 c-3 -3 -9 2 -12 12 -6 14 -5 15 5 6 7 -7 10 -15 7 -18z
m6 -40 c-4 -8 -11 -15 -16 -15 -6 0 -5 6 2 15 7 8 14 15 16 15 2 0 1 -7 -2
-15z m-4 -95 c0 -5 -7 -6 -17 -3 -12 5 -14 3 -8 -7 5 -9 4 -11 -4 -6 -6 4 -9
12 -6 17 8 12 35 12 35 -1z m5 -70 c-3 -5 -12 -10 -18 -10 -7 0 -6 4 3 10 19
12 23 12 15 0z m9 -25 c-4 -8 -13 -15 -22 -15 -13 0 -12 3 4 15 24 18 25 18
18 0z m26 -101 c0 -2 -9 -4 -21 -4 -11 0 -18 4 -14 10 5 8 35 3 35 -6z m-23
-46 c-3 -8 -6 -5 -6 6 -1 11 2 17 5 13 3 -3 4 -12 1 -19z m78 -328 c-3 -5 -14
-10 -23 -9 -14 0 -13 2 3 9 27 11 27 11 20 0z m5 -44 c0 -11 -19 -15 -25 -6
-3 5 1 10 9 10 9 0 16 -2 16 -4z m-25 -64 c-3 -3 -11 0 -18 7 -9 10 -8 11 6 5
10 -3 15 -9 12 -12z m45 -56 c0 -3 -4 -8 -10 -11 -5 -3 -10 -1 -10 4 0 6 5 11
10 11 6 0 10 -2 10 -4z m55 -274 c-3 -3 -11 0 -18 7 -9 10 -8 11 6 5 10 -3 15
-9 12 -12z m6 -51 c-8 -5 -10 -14 -6 -22 6 -11 5 -11 -5 -2 -14 12 -6 33 13
33 8 0 7 -3 -2 -9z m16 -46 c0 -8 -4 -12 -9 -9 -5 3 -6 10 -3 15 9 13 12 11
12 -6z"/>
<path d="M3497 8493 c-10 -9 -9 -23 1 -23 5 0 9 7 9 15 0 17 -1 18 -10 8z"/>
<path d="M3465 6930 c-3 -5 -1 -10 4 -10 6 0 11 5 11 10 0 6 -2 10 -4 10 -3 0
-8 -4 -11 -10z"/>
<path d="M3235 7370 c-3 -5 1 -10 10 -10 9 0 13 5 10 10 -3 6 -8 10 -10 10 -2
0 -7 -4 -10 -10z"/>
<path d="M3135 7100 c3 -5 8 -10 11 -10 2 0 4 5 4 10 0 6 -5 10 -11 10 -5 0
-7 -4 -4 -10z"/>
<path d="M2950 4475 c0 -8 4 -15 10 -15 5 0 7 7 4 15 -4 8 -8 15 -10 15 -2 0
-4 -7 -4 -15z"/>
<path d="M3105 4350 c3 -5 8 -10 11 -10 2 0 4 5 4 10 0 6 -5 10 -11 10 -5 0
-7 -4 -4 -10z"/>
<path d="M3174 3878 c-4 -7 -4 -10 1 -6 4 4 14 1 22 -7 17 -18 53 -20 53 -4 0
6 -6 9 -14 6 -7 -3 -23 1 -34 9 -16 11 -22 12 -28 2z"/>
<path d="M3332 3610 c0 -14 2 -19 5 -12 2 6 2 18 0 25 -3 6 -5 1 -5 -13z"/>
<path d="M3365 3560 c3 -5 8 -10 11 -10 2 0 4 5 4 10 0 6 -5 10 -11 10 -5 0
-7 -4 -4 -10z"/>
<path d="M3584 3112 c4 -7 3 -19 -4 -27 -8 -10 -8 -15 1 -21 7 -4 9 -3 5 4 -3
6 1 15 9 20 15 8 14 10 -1 23 -13 10 -15 10 -10 1z"/>
<path d="M3620 2961 c0 -6 4 -13 10 -16 6 -3 7 1 4 9 -7 18 -14 21 -14 7z"/>
<path d="M3611 2914 c0 -11 3 -14 6 -6 3 7 2 16 -1 19 -3 4 -6 -2 -5 -13z"/>
<path d="M3755 2420 c3 -5 8 -10 11 -10 2 0 4 5 4 10 0 6 -5 10 -11 10 -5 0
-7 -4 -4 -10z"/>
<path d="M3800 2111 c0 -6 4 -13 10 -16 6 -3 7 1 4 9 -7 18 -14 21 -14 7z"/>
<path d="M3830 1960 c6 -11 13 -20 16 -20 2 0 0 9 -6 20 -6 11 -13 20 -16 20
-2 0 0 -9 6 -20z"/>
<path d="M3926 1381 c-16 -17 -15 -18 9 -14 25 5 32 17 16 27 -4 3 -16 -3 -25
-13z"/>
<path d="M3980 1036 c0 -2 7 -7 16 -10 8 -3 12 -2 9 4 -6 10 -25 14 -25 6z"/>
</g>
</svg>
